<svg xmlns="http://www.w3.org/2000/svg" version="1.1" xmlns:xlink="http://www.w3.org/1999/xlink" xmlns:svgjs="http://svgjs.dev/svgjs" width="100%" height="100%" viewBox="0 0 1000 600"><rect width="1000" height="600" x="0" y="0" fill="#262223"/><g><circle r="166.66666666666666" cx="390.6873881022135" cy="412.90955975340927" fill="#ddc6b6" transform="matrix(0.5579842745427939,0,0,0.5579842745427939,0,69.60297224658626)"/><path d="M308.58602067652 487.9095342553239L259.00514971481005 487.9095342553239L259.00514971481005 480.5081246996565L278.9518055829792 478.02193693385317L279.18042054994964 347.5970982772283L258.37645855564136 345.110910511425L258.37645855564136 337.90953905185677L296.6694655231868 337.90953905185677L349.13660044289827 465.47669062135134L399.7462387559751 337.90953905185677L440.4682797475812 337.90953905185677L440.4682797475812 345.110910511425L419.0927803358469 347.36848331025794Q418.66412727277736 366.91506298622886 418.66412727277736 407.26560465650806L418.66412727277736 407.26560465650806L418.66412727277736 418.5820455215439Q418.66412727277736 458.47535725788225 419.0927803358469 478.4505899969227L419.0927803358469 478.4505899969227L440.4682797475812 480.5081246996565L440.4682797475812 487.9095342553239L381.0283883352719 487.9095342553239L381.0283883352719 480.5081246996565L401.17508229954024 478.4505899969227Q401.3751203956393 466.50545797271826 401.3751203956393 442.84380889127976L401.3751203956393 442.84380889127976Q401.60373536260977 427.0122224285781 401.60373536260977 419.18215980984127L401.60373536260977 419.18215980984127L401.80377345870886 357.2560806317286L349.93675282729475 487.9095342553239L341.5065759202605 487.9095342553239L287.6105974569839 358.08480988699637Q287.810635553083 371.65882355086507 288.4393267122516 398.4067746864043L288.4393267122516 398.4067746864043L288.63936480835076 404.9794549868039L288.63936480835076 478.02193693385317L308.58602067652 480.5081246996565L308.58602067652 487.9095342553239ZM522.998282823903 487.9095342553239L461.87235603018684 487.9095342553239L461.87235603018684 480.5081246996565L483.27643231279245 478.2505519008236Q483.90512347196113 458.70397222485263 483.90512347196113 418.5820455215439L483.90512347196113 418.5820455215439L483.90512347196113 407.26560465650806Q483.90512347196113 367.1436779531993 483.27643231279245 347.36848331025794L483.27643231279245 347.36848331025794L461.87235603018684 345.110910511425L461.87235603018684 337.90953905185677L522.998282823903 337.90953905185677L522.998282823903 345.110910511425L501.59420654129735 347.36848331025794Q500.96551538212873 366.91506298622886 500.96551538212873 407.26560465650806L500.96551538212873 407.26560465650806L500.96551538212873 418.5820455215439Q500.96551538212873 458.47535725788225 501.59420654129735 478.2505519008236L501.59420654129735 478.2505519008236L522.998282823903 480.5081246996565L522.998282823903 487.9095342553239Z " fill="#262223" transform="matrix(0.5579842745427939,0,0,0.5579842745427939,0,69.60297224658626)"/><path d="M685.2737355804354 485.3465260177464L641.2456528004085 485.3465260177464L641.2456528004085 478.7740341214773L658.9583915787709 476.566285878329L659.1614029114742 360.7483205710996L640.6873716354744 358.54057232795134L640.6873716354744 352.1457153477976L674.6917698632762 352.1457153477976L721.2828707186823 465.4260389962357L766.224504495874 352.1457153477976L802.3858981336482 352.1457153477976L802.3858981336482 358.54057232795134L783.4043385258901 360.5453092383964Q783.0236922770714 377.902778184528 783.0236922770714 413.7342784066594L783.0236922770714 413.7342784066594L783.0236922770714 423.78333937547245Q783.0236922770714 459.2088169321973 783.4043385258901 476.9469321271476L783.4043385258901 476.9469321271476L802.3858981336482 478.7740341214773L802.3858981336482 485.3465260177464L749.6029516307917 485.3465260177464L749.6029516307917 478.7740341214773L767.4933253252696 476.9469321271476Q767.6709602413848 466.33958999340047 767.6709602413848 445.32791705860956L767.6709602413848 445.32791705860956Q767.8739715740883 431.26938226890644 767.8739715740883 424.31624412381865L767.8739715740883 424.31624412381865L768.0516064902035 369.32554937781384L721.9934103831438 485.3465260177464L714.5073674897097 485.3465260177464L666.6474458049081 370.06146545886327Q666.8250807210236 382.11526333812134 667.3833618859576 405.8675892644068L667.3833618859576 405.8675892644068L667.560996802073 411.7041650796265L667.560996802073 476.566285878329L685.2737355804354 478.7740341214773L685.2737355804354 485.3465260177464ZM867.0703840162353 485.3465260177464L820.4792831608293 485.3465260177464L820.4792831608293 479.5099502025267L835.4767453642851 477.30220195937835Q836.0096501126313 461.94946992369177 836.0096501126313 443.6784499803953L836.0096501126313 443.6784499803953L836.0096501126313 433.62938901158225Q836.0096501126313 422.86978837830765 835.2737340315819 407.8723261748518L835.2737340315819 407.8723261748518Q835.2737340315819 406.6035053454562 835.2737340315819 405.8675892644068L835.2737340315819 405.8675892644068L819.0328274153183 404.5987684350112L819.0328274153183 398.73681620320355L845.322795000395 389.0684014832092L847.885813075774 390.89550347753885L849.7129150701037 414.8254643199396Q854.6613163047464 402.77166644068154 862.6802639465266 395.8185282955937Q870.7245880048945 388.8653901505059 879.5048281443121 388.8653901505059L879.5048281443121 388.8653901505059Q884.0725831301363 388.8653901505059 888.0059277012624 390.6924921448355Q891.9138958558008 392.5195941391652 893.3857280178997 395.46325846336293L893.3857280178997 395.46325846336293Q893.3857280178997 407.8723261748518 883.1590321329713 407.8723261748518L883.1590321329713 407.8723261748518Q877.6777261499824 407.8723261748518 871.460504085944 402.56865510797826L871.460504085944 402.56865510797826L868.897486010565 400.38628328141783Q856.6660532151914 408.43060733978587 849.890549986219 427.0568971153131L849.890549986219 427.0568971153131L849.890549986219 443.6784499803953Q849.890549986219 456.6711752734061 850.2711962350377 477.12456704326297L850.2711962350377 477.12456704326297L867.0703840162353 479.5099502025267L867.0703840162353 485.3465260177464ZM924.6240968376192 463.2436671696753L924.6240968376192 463.2436671696753Q929.7501329883773 463.2436671696753 933.2267020609213 466.89787115833457Q936.6778947168773 470.5520751469939 936.6778947168773 475.57660563140035Q936.6778947168773 480.6011361158069 933.2267020609213 484.15383443811453Q929.7501329883773 487.7319091770101 924.6240968376192 487.7319091770101Q919.5234371034489 487.7319091770101 916.046868030905 484.15383443811453Q912.570298958361 480.6011361158069 912.570298958361 475.57660563140035Q912.570298958361 470.5520751469939 916.046868030905 466.89787115833457Q919.5234371034489 463.2436671696753 924.6240968376192 463.2436671696753ZM1109.5420445137322 485.3465260177464L1055.261889432189 485.3465260177464L1055.261889432189 478.7740341214773L1074.2688254565348 476.7692972110322Q1074.8271066214688 459.4118282649006 1074.8271066214688 423.78333937547245L1074.8271066214688 423.78333937547245L1074.8271066214688 413.7342784066594Q1074.8271066214688 378.1057895172313 1074.2688254565348 360.5453092383964L1074.2688254565348 360.5453092383964L1055.261889432189 358.54057232795134L1055.261889432189 352.1457153477976L1109.5420445137322 352.1457153477976L1109.5420445137322 358.54057232795134L1090.5351084893864 360.5453092383964Q1089.9768273244522 377.902778184528 1089.9768273244522 413.7342784066594L1089.9768273244522 413.7342784066594L1089.9768273244522 423.78333937547245Q1089.9768273244522 459.2088169321973 1090.5351084893864 476.7692972110322L1090.5351084893864 476.7692972110322L1109.5420445137322 478.7740341214773L1109.5420445137322 485.3465260177464ZM1183.8949451163137 487.9095440931255L1183.8949451163137 487.9095440931255Q1167.2733922512314 487.9095440931255 1155.3972292880887 473.47036305460375L1155.3972292880887 473.47036305460375L1153.92539712599 487.1736280120761L1125.7829511299958 485.3465260177464L1125.7829511299958 479.5099502025267L1141.516329414501 477.12456704326297Q1141.8715992467319 457.0264451056369 1141.8715992467319 443.6784499803953L1141.8715992467319 443.6784499803953L1141.8715992467319 352.88163142884696L1125.2500463816496 351.23216435063273L1125.2500463816496 345.5732234515284L1153.1894810449405 337.9095456419791L1155.930134036435 339.5336363036054L1155.2195943719735 367.67608229959956L1155.2195943719735 404.0404872700771Q1168.9228593294456 388.8653901505059 1186.2803282755774 388.8653901505059L1186.2803282755774 388.8653901505059Q1202.9018811406595 388.8653901505059 1213.483846857819 401.85811544351674L1213.483846857819 401.85811544351674Q1224.2688239076813 415.1807341521704 1224.2688239076813 437.2835930002415L1224.2688239076813 437.2835930002415Q1224.2688239076813 459.7670980971314 1213.0270713592363 473.8256328868345Q1201.8106952273793 487.9095440931255 1183.8949451163137 487.9095440931255ZM1181.1542921248192 478.5963992053619L1181.1542921248192 478.5963992053619Q1193.3857249201926 478.5963992053619 1201.07477914633 469.080242984895L1201.07477914633 469.080242984895Q1209.4743730369287 458.4982772677358 1209.4743730369287 438.40015533010967L1209.4743730369287 438.40015533010967Q1209.4743730369287 419.0125730569451 1201.8106952273793 408.2529724236705L1201.8106952273793 408.2529724236705Q1194.5022872500608 398.0009001221541 1182.067843121984 398.0009001221541L1182.067843121984 398.0009001221541Q1169.100494245561 398.0009001221541 1155.7524991203195 410.25770933411553L1155.7524991203195 410.25770933411553L1155.7524991203195 466.89787115833457Q1167.6286620834621 478.5963992053619 1181.1542921248192 478.5963992053619ZM1285.1214708854939 485.3465260177464L1240.3574720244173 485.3465260177464L1240.3574720244173 479.5099502025267L1256.0654738923347 477.12456704326297Q1256.4207437245657 457.0264451056369 1256.4207437245657 443.6784499803953L1256.4207437245657 443.6784499803953L1256.4207437245657 352.7039965127316L1239.7991908594834 351.23216435063273L1239.7991908594834 345.5732234515284L1267.764001939362 337.9095456419791L1270.5046549308565 339.5336363036054L1269.7687388498073 367.67608229959956L1269.7687388498073 408.0499610909672Q1277.8130629081752 399.11746245202227 1287.4814776281694 393.9914263012641L1287.4814776281694 393.9914263012641Q1297.5305385969825 388.8653901505059 1306.8690599013341 388.8653901505059L1306.8690599013341 388.8653901505059Q1319.6587738616415 388.8653901505059 1325.6729845929767 397.0873491249893L1325.6729845929767 397.0873491249893Q1331.8902066570151 405.6899543482914 1331.8902066570151 424.6968903726373L1331.8902066570151 424.6968903726373L1331.8902066570151 443.6784499803953Q1331.8902066570151 457.0264451056369 1332.2454764892461 477.12456704326297L1332.2454764892461 477.12456704326297L1346.862292443883 479.5099502025267L1346.862292443883 485.3465260177464L1302.30130491551 485.3465260177464L1302.30130491551 479.5099502025267L1317.831671867312 477.30220195937835Q1318.1869416995428 456.8488101895215 1318.1869416995428 443.6784499803953L1318.1869416995428 443.6784499803953L1318.1869416995428 425.40743003709883Q1318.1869416995428 411.5265301635111 1313.7968216298339 405.6899543482914L1313.7968216298339 405.6899543482914Q1309.7873478089439 400.20864836530245 1300.6518378372957 400.20864836530245L1300.6518378372957 400.20864836530245Q1285.65437563384 400.20864836530245 1270.327020014741 414.8254643199396L1270.327020014741 414.8254643199396L1270.327020014741 443.6784499803953Q1270.327020014741 456.8488101895215 1270.682289846972 477.30220195937835L1270.682289846972 477.30220195937835L1285.1214708854939 479.5099502025267L1285.1214708854939 485.3465260177464ZM1389.0886496461683 487.9095440931255L1389.0886496461683 487.9095440931255Q1377.5677565152562 487.9095440931255 1370.4369834540532 481.69232202908717L1370.4369834540532 481.69232202908717Q1362.7733056445038 475.119830132818 1362.7733056445038 463.77657191802143L1362.7733056445038 463.77657191802143Q1362.7733056445038 454.108157198027 1369.5234324568885 447.5356653017579L1369.5234324568885 447.5356653017579Q1376.831840434207 440.024245991736 1394.7475905452727 433.62938901158225L1394.7475905452727 433.62938901158225Q1408.9837602510909 429.26464535846145 1419.032821219904 427.0568971153131L1419.032821219904 427.0568971153131L1419.032821219904 421.2203213000934Q1419.032821219904 406.6035053454562 1414.2874313179648 401.12219936246726L1414.2874313179648 401.12219936246726Q1409.897311248256 396.17379812782445 1399.1377106149814 396.17379812782445L1399.1377106149814 396.17379812782445Q1392.1845724698935 396.17379812782445 1386.3479966546738 398.2039114548574L1386.3479966546738 398.2039114548574L1382.3131464171959 411.7041650796265Q1380.1307745906354 419.7484891379945 1373.355271361663 419.7484891379945L1373.355271361663 419.7484891379945Q1365.869228468229 419.7484891379945 1365.3363237198828 412.8207274094946L1365.3363237198828 412.8207274094946Q1368.2546116274927 401.6551041108134 1378.202166929954 395.26024713065965Q1388.1750986490033 388.8653901505059 1402.7919146036404 388.8653901505059L1402.7919146036404 388.8653901505059Q1418.3222815554425 388.8653901505059 1425.4276782000577 396.37680946052774L1425.4276782000577 396.37680946052774Q1432.9390975100798 404.2181221861925 1432.9390975100798 421.75322604843956L1432.9390975100798 421.75322604843956L1432.9390975100798 465.0707691640049Q1432.9390975100798 478.9516690375927 1440.7804102357445 478.9516690375927L1440.7804102357445 478.9516690375927Q1444.992895389338 478.9516690375927 1449.002369210228 474.5615489678839L1449.002369210228 474.5615489678839L1452.123668450541 478.3933878726586Q1446.084081302618 487.52889784430687 1436.2126552499205 487.52889784430687L1436.2126552499205 487.52889784430687Q1429.2848935214204 487.52889784430687 1424.9709027014756 483.2402834409498Q1420.6822882981185 478.9516690375927 1419.4134674687227 471.28799122804327L1419.4134674687227 471.28799122804327Q1410.45559241319 480.42350119969154 1404.6190165979704 483.87469385564754L1404.6190165979704 483.87469385564754Q1397.488243536767 487.9095440931255 1389.0886496461683 487.9095440931255ZM1394.366944296454 477.12456704326297L1394.366944296454 477.12456704326297Q1399.848250279443 477.12456704326297 1405.1519213463164 474.3839140517685L1405.1519213463164 474.3839140517685Q1409.897311248256 471.8208959763894 1419.032821219904 464.51248799907086L1419.032821219904 464.51248799907086L1419.032821219904 432.9188493471207Q1406.4461185922999 436.3700420030767 1398.5794294500472 439.49134124338985L1398.5794294500472 439.49134124338985Q1386.3479966546738 444.059096229214 1381.3995954200311 450.0733069605491L1381.3995954200311 450.0733069605491Q1377.5677565152562 454.8440732790765 1377.5677565152562 461.23893025923024L1377.5677565152562 461.23893025923024Q1377.5677565152562 469.080242984895 1382.3131464171959 473.29272813848837L1382.3131464171959 473.29272813848837Q1386.7032664869046 477.12456704326297 1394.366944296454 477.12456704326297ZM1506.9367282804305 485.3465260177464L1462.3503643354695 485.3465260177464L1462.3503643354695 479.5099502025267L1477.703096371156 477.30220195937835Q1478.2360011195024 461.94946992369177 1478.2360011195024 443.6784499803953L1478.2360011195024 443.6784499803953L1478.2360011195024 433.62938901158225Q1478.2360011195024 422.86978837830765 1477.5000850384529 407.69469125873644L1477.5000850384529 407.69469125873644Q1477.5000850384529 406.4258704293408 1477.5000850384529 405.8675892644068L1477.5000850384529 405.8675892644068L1461.2591784221893 404.5987684350112L1461.2591784221893 398.73681620320355L1487.549146007266 389.0684014832092L1490.1121640826448 390.89550347753885L1491.5839962447437 407.69469125873644Q1499.6283203031119 398.9144511193189 1509.2967350231063 393.8899206349124Q1518.9905261596884 388.8653901505059 1528.1260361313368 388.8653901505059L1528.1260361313368 388.8653901505059Q1540.9157500916442 388.8653901505059 1546.9299608229794 397.0873491249893L1546.9299608229794 397.0873491249893Q1553.1471828870178 405.6899543482914 1553.1471828870178 424.6968903726373L1553.1471828870178 424.6968903726373L1553.1471828870178 443.6784499803953Q1553.1471828870178 461.94946992369177 1553.7054640519518 477.12456704326297L1553.7054640519518 477.12456704326297L1568.1446450904737 479.5099502025267L1568.1446450904737 485.3465260177464L1523.3806462293974 485.3465260177464L1523.3806462293974 479.5099502025267L1538.9110131811992 477.30220195937835Q1539.2662830134302 457.20408002175225 1539.2662830134302 443.6784499803953L1539.2662830134302 443.6784499803953L1539.2662830134302 425.40743003709883Q1539.2662830134302 411.5265301635111 1535.0537978598365 405.6899543482914L1535.0537978598365 405.6899543482914Q1531.0443240389466 400.20864836530245 1522.086448983414 400.20864836530245L1522.086448983414 400.20864836530245Q1508.0279141937106 400.20864836530245 1492.1169009930902 414.8254643199396L1492.1169009930902 414.8254643199396L1492.1169009930902 443.6784499803953Q1492.1169009930902 457.0264451056369 1492.4975472419087 477.12456704326297L1492.4975472419087 477.12456704326297L1506.9367282804305 479.5099502025267L1506.9367282804305 485.3465260177464Z " fill="#ddc6b6" transform="matrix(0.5579842745427939,0,0,0.5579842745427939,0,69.60297224658626)"/></g></svg>